<svg xmlns="http://www.w3.org/2000/svg" viewBox="0 0 32 32" width="32" height="32" shape-rendering="crispEdges">
<rect x="6" y="0" width="20" height="2" fill="#241a10"/>
<rect x="2" y="2" width="4" height="2" fill="#241a10"/>
<rect x="6" y="2" width="20" height="2" fill="#4a3524"/>
<rect x="26" y="2" width="4" height="2" fill="#241a10"/>
<rect x="0" y="4" width="2" height="2" fill="#241a10"/>
<rect x="2" y="4" width="8" height="2" fill="#4a3524"/>
<rect x="10" y="4" width="12" height="2" fill="#d06b43"/>
<rect x="22" y="4" width="8" height="2" fill="#4a3524"/>
<rect x="30" y="4" width="2" height="2" fill="#241a10"/>
<rect x="0" y="6" width="2" height="2" fill="#241a10"/>
<rect x="2" y="6" width="6" height="2" fill="#4a3524"/>
<rect x="8" y="6" width="16" height="2" fill="#d06b43"/>
<rect x="24" y="6" width="6" height="2" fill="#4a3524"/>
<rect x="30" y="6" width="2" height="2" fill="#241a10"/>
<rect x="0" y="8" width="2" height="2" fill="#241a10"/>
<rect x="2" y="8" width="4" height="2" fill="#4a3524"/>
<rect x="6" y="8" width="20" height="2" fill="#d06b43"/>
<rect x="26" y="8" width="4" height="2" fill="#4a3524"/>
<rect x="30" y="8" width="2" height="2" fill="#241a10"/>
<rect x="0" y="10" width="2" height="2" fill="#241a10"/>
<rect x="2" y="10" width="2" height="2" fill="#4a3524"/>
<rect x="4" y="10" width="24" height="2" fill="#d06b43"/>
<rect x="28" y="10" width="2" height="2" fill="#4a3524"/>
<rect x="30" y="10" width="2" height="2" fill="#241a10"/>
<rect x="0" y="12" width="2" height="2" fill="#241a10"/>
<rect x="2" y="12" width="2" height="2" fill="#4a3524"/>
<rect x="4" y="12" width="24" height="2" fill="#a8512e"/>
<rect x="28" y="12" width="2" height="2" fill="#4a3524"/>
<rect x="30" y="12" width="2" height="2" fill="#241a10"/>
<rect x="0" y="14" width="2" height="2" fill="#241a10"/>
<rect x="2" y="14" width="4" height="2" fill="#4a3524"/>
<rect x="6" y="14" width="2" height="2" fill="#b5622e"/>
<rect x="8" y="14" width="16" height="2" fill="#f3cfa0"/>
<rect x="24" y="14" width="2" height="2" fill="#b5622e"/>
<rect x="26" y="14" width="4" height="2" fill="#4a3524"/>
<rect x="30" y="14" width="2" height="2" fill="#241a10"/>
<rect x="0" y="16" width="2" height="2" fill="#241a10"/>
<rect x="2" y="16" width="4" height="2" fill="#4a3524"/>
<rect x="6" y="16" width="4" height="2" fill="#f3cfa0"/>
<rect x="10" y="16" width="2" height="2" fill="#33291f"/>
<rect x="12" y="16" width="8" height="2" fill="#f3cfa0"/>
<rect x="20" y="16" width="2" height="2" fill="#33291f"/>
<rect x="22" y="16" width="4" height="2" fill="#f3cfa0"/>
<rect x="26" y="16" width="4" height="2" fill="#4a3524"/>
<rect x="30" y="16" width="2" height="2" fill="#241a10"/>
<rect x="0" y="18" width="2" height="2" fill="#241a10"/>
<rect x="2" y="18" width="4" height="2" fill="#4a3524"/>
<rect x="6" y="18" width="20" height="2" fill="#f3cfa0"/>
<rect x="26" y="18" width="4" height="2" fill="#4a3524"/>
<rect x="30" y="18" width="2" height="2" fill="#241a10"/>
<rect x="0" y="20" width="2" height="2" fill="#241a10"/>
<rect x="2" y="20" width="4" height="2" fill="#4a3524"/>
<rect x="6" y="20" width="4" height="2" fill="#f3cfa0"/>
<rect x="10" y="20" width="2" height="2" fill="#d9a877"/>
<rect x="12" y="20" width="8" height="2" fill="#f3cfa0"/>
<rect x="20" y="20" width="2" height="2" fill="#d9a877"/>
<rect x="22" y="20" width="4" height="2" fill="#f3cfa0"/>
<rect x="26" y="20" width="4" height="2" fill="#4a3524"/>
<rect x="30" y="20" width="2" height="2" fill="#241a10"/>
<rect x="0" y="22" width="2" height="2" fill="#241a10"/>
<rect x="2" y="22" width="6" height="2" fill="#4a3524"/>
<rect x="8" y="22" width="16" height="2" fill="#f3cfa0"/>
<rect x="24" y="22" width="6" height="2" fill="#4a3524"/>
<rect x="30" y="22" width="2" height="2" fill="#241a10"/>
<rect x="0" y="24" width="2" height="2" fill="#241a10"/>
<rect x="2" y="24" width="4" height="2" fill="#4a3524"/>
<rect x="6" y="24" width="2" height="2" fill="#f6efdd"/>
<rect x="8" y="24" width="16" height="2" fill="#3a8c85"/>
<rect x="24" y="24" width="2" height="2" fill="#f6efdd"/>
<rect x="26" y="24" width="4" height="2" fill="#4a3524"/>
<rect x="30" y="24" width="2" height="2" fill="#241a10"/>
<rect x="0" y="26" width="4" height="2" fill="#241a10"/>
<rect x="4" y="26" width="4" height="2" fill="#4a3524"/>
<rect x="8" y="26" width="2" height="2" fill="#3a8c85"/>
<rect x="10" y="26" width="2" height="2" fill="#2c6b66"/>
<rect x="12" y="26" width="8" height="2" fill="#3a8c85"/>
<rect x="20" y="26" width="2" height="2" fill="#2c6b66"/>
<rect x="22" y="26" width="2" height="2" fill="#3a8c85"/>
<rect x="24" y="26" width="4" height="2" fill="#4a3524"/>
<rect x="28" y="26" width="4" height="2" fill="#241a10"/>
<rect x="2" y="28" width="4" height="2" fill="#241a10"/>
<rect x="6" y="28" width="4" height="2" fill="#4a3524"/>
<rect x="10" y="28" width="12" height="2" fill="#3a8c85"/>
<rect x="22" y="28" width="4" height="2" fill="#4a3524"/>
<rect x="26" y="28" width="4" height="2" fill="#241a10"/>
<rect x="6" y="30" width="20" height="2" fill="#241a10"/>
</svg>
