<svg xmlns="http://www.w3.org/2000/svg" viewBox="0 0 256 256" width="256" height="256" shape-rendering="crispEdges">
<rect x="48" y="0" width="160" height="16" fill="#241a10"/>
<rect x="16" y="16" width="32" height="16" fill="#241a10"/>
<rect x="48" y="16" width="160" height="16" fill="#4a3524"/>
<rect x="208" y="16" width="32" height="16" fill="#241a10"/>
<rect x="0" y="32" width="16" height="16" fill="#241a10"/>
<rect x="16" y="32" width="64" height="16" fill="#4a3524"/>
<rect x="80" y="32" width="96" height="16" fill="#d06b43"/>
<rect x="176" y="32" width="64" height="16" fill="#4a3524"/>
<rect x="240" y="32" width="16" height="16" fill="#241a10"/>
<rect x="0" y="48" width="16" height="16" fill="#241a10"/>
<rect x="16" y="48" width="48" height="16" fill="#4a3524"/>
<rect x="64" y="48" width="128" height="16" fill="#d06b43"/>
<rect x="192" y="48" width="48" height="16" fill="#4a3524"/>
<rect x="240" y="48" width="16" height="16" fill="#241a10"/>
<rect x="0" y="64" width="16" height="16" fill="#241a10"/>
<rect x="16" y="64" width="32" height="16" fill="#4a3524"/>
<rect x="48" y="64" width="160" height="16" fill="#d06b43"/>
<rect x="208" y="64" width="32" height="16" fill="#4a3524"/>
<rect x="240" y="64" width="16" height="16" fill="#241a10"/>
<rect x="0" y="80" width="16" height="16" fill="#241a10"/>
<rect x="16" y="80" width="16" height="16" fill="#4a3524"/>
<rect x="32" y="80" width="192" height="16" fill="#d06b43"/>
<rect x="224" y="80" width="16" height="16" fill="#4a3524"/>
<rect x="240" y="80" width="16" height="16" fill="#241a10"/>
<rect x="0" y="96" width="16" height="16" fill="#241a10"/>
<rect x="16" y="96" width="16" height="16" fill="#4a3524"/>
<rect x="32" y="96" width="192" height="16" fill="#a8512e"/>
<rect x="224" y="96" width="16" height="16" fill="#4a3524"/>
<rect x="240" y="96" width="16" height="16" fill="#241a10"/>
<rect x="0" y="112" width="16" height="16" fill="#241a10"/>
<rect x="16" y="112" width="32" height="16" fill="#4a3524"/>
<rect x="48" y="112" width="16" height="16" fill="#b5622e"/>
<rect x="64" y="112" width="128" height="16" fill="#f3cfa0"/>
<rect x="192" y="112" width="16" height="16" fill="#b5622e"/>
<rect x="208" y="112" width="32" height="16" fill="#4a3524"/>
<rect x="240" y="112" width="16" height="16" fill="#241a10"/>
<rect x="0" y="128" width="16" height="16" fill="#241a10"/>
<rect x="16" y="128" width="32" height="16" fill="#4a3524"/>
<rect x="48" y="128" width="32" height="16" fill="#f3cfa0"/>
<rect x="80" y="128" width="16" height="16" fill="#33291f"/>
<rect x="96" y="128" width="64" height="16" fill="#f3cfa0"/>
<rect x="160" y="128" width="16" height="16" fill="#33291f"/>
<rect x="176" y="128" width="32" height="16" fill="#f3cfa0"/>
<rect x="208" y="128" width="32" height="16" fill="#4a3524"/>
<rect x="240" y="128" width="16" height="16" fill="#241a10"/>
<rect x="0" y="144" width="16" height="16" fill="#241a10"/>
<rect x="16" y="144" width="32" height="16" fill="#4a3524"/>
<rect x="48" y="144" width="160" height="16" fill="#f3cfa0"/>
<rect x="208" y="144" width="32" height="16" fill="#4a3524"/>
<rect x="240" y="144" width="16" height="16" fill="#241a10"/>
<rect x="0" y="160" width="16" height="16" fill="#241a10"/>
<rect x="16" y="160" width="32" height="16" fill="#4a3524"/>
<rect x="48" y="160" width="32" height="16" fill="#f3cfa0"/>
<rect x="80" y="160" width="16" height="16" fill="#d9a877"/>
<rect x="96" y="160" width="64" height="16" fill="#f3cfa0"/>
<rect x="160" y="160" width="16" height="16" fill="#d9a877"/>
<rect x="176" y="160" width="32" height="16" fill="#f3cfa0"/>
<rect x="208" y="160" width="32" height="16" fill="#4a3524"/>
<rect x="240" y="160" width="16" height="16" fill="#241a10"/>
<rect x="0" y="176" width="16" height="16" fill="#241a10"/>
<rect x="16" y="176" width="48" height="16" fill="#4a3524"/>
<rect x="64" y="176" width="128" height="16" fill="#f3cfa0"/>
<rect x="192" y="176" width="48" height="16" fill="#4a3524"/>
<rect x="240" y="176" width="16" height="16" fill="#241a10"/>
<rect x="0" y="192" width="16" height="16" fill="#241a10"/>
<rect x="16" y="192" width="32" height="16" fill="#4a3524"/>
<rect x="48" y="192" width="16" height="16" fill="#f6efdd"/>
<rect x="64" y="192" width="128" height="16" fill="#3a8c85"/>
<rect x="192" y="192" width="16" height="16" fill="#f6efdd"/>
<rect x="208" y="192" width="32" height="16" fill="#4a3524"/>
<rect x="240" y="192" width="16" height="16" fill="#241a10"/>
<rect x="0" y="208" width="32" height="16" fill="#241a10"/>
<rect x="32" y="208" width="32" height="16" fill="#4a3524"/>
<rect x="64" y="208" width="16" height="16" fill="#3a8c85"/>
<rect x="80" y="208" width="16" height="16" fill="#2c6b66"/>
<rect x="96" y="208" width="64" height="16" fill="#3a8c85"/>
<rect x="160" y="208" width="16" height="16" fill="#2c6b66"/>
<rect x="176" y="208" width="16" height="16" fill="#3a8c85"/>
<rect x="192" y="208" width="32" height="16" fill="#4a3524"/>
<rect x="224" y="208" width="32" height="16" fill="#241a10"/>
<rect x="16" y="224" width="32" height="16" fill="#241a10"/>
<rect x="48" y="224" width="32" height="16" fill="#4a3524"/>
<rect x="80" y="224" width="96" height="16" fill="#3a8c85"/>
<rect x="176" y="224" width="32" height="16" fill="#4a3524"/>
<rect x="208" y="224" width="32" height="16" fill="#241a10"/>
<rect x="48" y="240" width="160" height="16" fill="#241a10"/>
</svg>
